# xmcd
#
# Track frame offsets:
#	150
#	16102
#	30450
#	43800
#	56827
#	71977
#	90600
#	107077
#	121327
#	135502
#	149352
#	166927
#	184102
#	199777
#	216072
#	229552
#
# Disc length: 3235 seconds
#
# Revision: 1
# Processed by: cddbd v1.5.1PL0 Copyright (c) Steve Scherf et al.
# Submitted via: audiograbber 1.83.01
#
DISCID=df0ca110
DTITLE=Truck Stop - "...echte Kerle"
DYEAR=1900
DGENRE=Country
TTITLE0=Trucker lieben die Freiheit
TTITLE1=Country Boy
TTITLE2=Der wilde, wilde Westen
TTITLE3=Kanten, Falten, Ecken
TTITLE4=Echte Kerle
TTITLE5=Route 66
TTITLE6=Angeln entspannt (live)
TTITLE7=Cowboys küssen besser
TTITLE8=Das süsse Leben auf dem Land
TTITLE9=Komm ma' auf'n Punkt
TTITLE10=Träume von den Cowboys
TTITLE11=Heimat ist überall
TTITLE12=Wenn ein Stern vom Himmel fällt
TTITLE13=Ich möcht so gern Dave Dudley hör'n (live)
TTITLE14=Take It Easy, altes Haus (live)
TTITLE15=Sein Name ist...
EXTD=
EXTT0=
EXTT1=
EXTT2=
EXTT3=
EXTT4=
EXTT5=
EXTT6=
EXTT7=
EXTT8=
EXTT9=
EXTT10=
EXTT11=
EXTT12=
EXTT13=
EXTT14=
EXTT15=
PLAYORDER=
